<svg xmlns="http://www.w3.org/2000/svg" width="20" height="25"><path d="M19.507 8.873H14.28c2.087-1.033 3.54-2.809 3.784-4.909a.48.48 0 0 0-.122-.377.499.499 0 0 0-.368-.162h-6.452V1.531h1.205V.978h-1.205V.277A.28.28 0 0 0 10.84 0H9.16a.28.28 0 0 0-.282.277v3.148H2.426c-.14 0-.274.06-.368.162a.48.48 0 0 0-.122.377c.244 2.1 1.697 3.876 3.784 4.91H.493A.489.489 0 0 0 0 9.356v15.159c0 .268.22.484.493.484h19.014a.489.489 0 0 0 .493-.484V9.357a.489.489 0 0 0-.493-.484M9.442.553h1.116v2.872H9.442V.553Zm-6.427 3.84h13.97c-.633 2.552-3.576 4.48-6.985 4.48-3.41 0-6.352-1.928-6.985-4.48m15.998 8.949H.987v-3.5h18.026v3.5ZM.987 14.464h18.026v9.568H.987v-9.568Z" fill="#282826" fill-rule="evenodd" data-name="Path 2837"/></svg>