<svg xmlns="http://www.w3.org/2000/svg" width="14" height="22"><path d="M13.343 22c.362 0 .657-.3.657-.669V.67A.664.664 0 0 0 13.343 0c-.363 0-.658.3-.658.669V.91H1.315V.669A.664.664 0 0 0 .658 0C.295 0 0 .3 0 .669V21.33c0 .37.295.67.658.67.362 0 .657-.3.657-.67v-1.85H5.56l.015.007c.44.21.912.318 1.402.318.49 0 .962-.107 1.401-.318l.016-.008h4.291v1.851c0 .37.295.67.658.67M1.315 2.247h11.37v3.175H1.315V2.248Zm6.284 8.56a.628.628 0 0 1-.622.633.628.628 0 0 1-.622-.633c0-.349.28-.633.622-.633.343 0 .622.284.622.633M1.315 6.761H6.32v2.525l-.045.022a1.675 1.675 0 0 0-.932 1.5c0 .917.733 1.662 1.634 1.662.901 0 1.634-.745 1.634-1.662 0-.636-.366-1.225-.932-1.5l-.044-.022V6.761h5.05v6.87H8.792l-.019-.013a3.248 3.248 0 0 0-3.592 0l-.02.012H1.315V6.76Zm0 11.382v-3.175h2.687l-.049.112a3.407 3.407 0 0 0 .107 2.946l.062.117H1.315Zm7.255-.022a2.26 2.26 0 0 1-3.185 0 2.328 2.328 0 0 1-.703-1.68c0-.528.17-1.027.493-1.443a2.266 2.266 0 0 1 3.605 0c.323.416.493.915.493 1.443 0 .64-.25 1.236-.703 1.68m1.263.022.061-.117a3.408 3.408 0 0 0 .107-2.946l-.049-.112h2.733v3.175H9.833Z" fill-rule="evenodd" data-name="Path 2841"/></svg>