<svg xmlns="http://www.w3.org/2000/svg" width="28" height="12"><path d="M26.628.566H11.546V0h-6.82v.566H1.371C.615.566 0 1.165 0 1.9c0 .627.447 1.15 1.046 1.292v2.564c0 1.89 1.162 3.52 2.825 4.255a2.979 2.979 0 0 0-.768 1.988h1.299c0-.698.42-1.298 1.023-1.59.14.013.28.022.424.022h16.087c.224 0 .442-.02.657-.05A1.78 1.78 0 0 1 23.669 12h1.3a2.97 2.97 0 0 0-.862-2.08c1.56-.772 2.631-2.347 2.631-4.163V3.225C27.442 3.169 28 2.6 28 1.9c0-.736-.616-1.335-1.372-1.335ZM5.592.843h5.088v6.216H5.592V.843ZM.866 1.9c0-.272.226-.492.505-.492h3.355v.983H1.371a.499.499 0 0 1-.505-.491Zm25.006 3.855c0 2.113-1.766 3.832-3.936 3.832H5.848c-2.17 0-3.937-1.719-3.937-3.832V3.235h2.815v4.667h6.82V3.235h14.326v2.521Zm.756-3.364H11.546V1.41h15.082c.28 0 .506.22.506.492a.5.5 0 0 1-.506.491Z" fill-rule="evenodd" data-name="Path 2819"/></svg>