<svg xmlns="http://www.w3.org/2000/svg" width="27.854" height="18.861"><path d="M21.757 0c1.2 0 2.17.97 2.17 2.169v.816h3.433a.49.49 0 0 1 .494.495.487.487 0 0 1-.494.494h-3.432v12.724a2.162 2.162 0 0 1-2.163 2.163H9.548a2.162 2.162 0 0 1-2.163-2.163v-.72H6.198a2.16 2.16 0 0 1-2.161-2.164v-9.84H.495A.492.492 0 0 1 0 3.479c0-.277.216-.493.494-.494h3.541v-.816C4.035.969 5.005 0 6.204 0h15.553Zm.002.987h-.149l-.002.002H8.09l.164.477c.076.223.12.457.12.703v14.528c0 .644.53 1.175 1.173 1.175h12.218c.645 0 1.176-.531 1.176-1.175V2.17c0-.648-.533-1.182-1.18-1.182h-.002ZM6.203.99c-.507 0-1.042.24-1.182.82v1.177h2.364v-.817c0-.649-.535-1.18-1.181-1.18h-.001Zm1.18 2.985H5.021v9.84c0 .645.531 1.175 1.175 1.175h1.187V3.974Z" fill-rule="evenodd" data-name="Path 2821"/></svg>