<svg xmlns="http://www.w3.org/2000/svg" width="19" height="19"><path d="M18.53 0H.47A.47.47 0 0 0 0 .47v18.06c0 .26.21.47.47.47h18.06a.47.47 0 0 0 .47-.47V.47a.47.47 0 0 0-.47-.47M2.448 14.483l.998 1.724a.47.47 0 0 0 .407.238h.66v1.616H.94v-3.578h1.509Zm1.287-1.285.389-.674h1.719l.578 1.003.282.49-.438.758-.422.731h-1.72l-.859-1.49.471-.818M.94 5.453h1.509l.997 1.724a.47.47 0 0 0 .408.238h.66V9.03H.94V5.453Zm5.177 6.132h-.663V9.97H9.03v3.574H7.516l-.993-1.723-.003-.005a.478.478 0 0 0-.404-.231m-.663-4.17h.663a.477.477 0 0 0 .404-.231l1-1.731h1.51V9.03H5.453V7.415Zm0 9.03h.663a.477.477 0 0 0 .404-.231l1-1.73h1.51v3.577H5.453v-1.615ZM9.03 4.515H7.516L6.523 2.79l-.003-.005a.478.478 0 0 0-.404-.231h-.663V.939H9.03v3.575Zm-2.327.472-.438.758-.422.732h-1.72l-.859-1.49.51-.884.35-.608h1.719l.461.8.399.692Zm-2.19-2.432h-.66a.468.468 0 0 0-.406.237L2.45 4.514H.94V.939h3.574v1.615Zm0 9.03h-.66a.468.468 0 0 0-.406.237l-.997 1.723H.94V9.97h3.574v1.615Zm10.63-9.03h-.66V.94h3.578v3.575h-1.514l-.995-1.721a.47.47 0 0 0-.408-.238m-3.666 11.928.998 1.724a.467.467 0 0 0 .405.238h.663v1.616H9.97v-3.578h1.508Zm1.385-1.453.291-.506h1.72l.8 1.389.06.103-.438.759-.423.731h-1.719l-.86-1.49.569-.986m-1.385-7.577.998 1.724a.467.467 0 0 0 .405.238h.663V9.03H9.97V5.453h1.508Zm3.005 1.962h.66a.468.468 0 0 0 .407-.236l1-1.726h1.51V9.03h-3.577V7.415Zm0 9.03h.66a.468.468 0 0 0 .407-.236l1-1.726h1.51v3.578h-3.577v-1.616Zm.66-4.86h-.66V9.97h3.578v3.574h-1.514l-.995-1.72a.47.47 0 0 0-.408-.239m.148-5.836-.419.727h-1.719L12.5 5.34l-.206-.357.332-.574.528-.915h1.72l.86 1.49c-.096.164-.27.466-.442.765m-1.748-3.195h-.663a.466.466 0 0 0-.404.237l-.996 1.723H9.97V.939h3.574v1.615Zm0 9.03h-.663c-.285 0-.37.153-.648.656-.152.275-.378.684-.75 1.304H9.97V9.97h3.574v1.615Z" fill-rule="evenodd" data-name="Path 2836"/></svg>