<svg xmlns="http://www.w3.org/2000/svg" width="20.494" height="24.047" viewBox="0 1.953 20.494 24.047"><g data-name="Group 560" clip-path="url(&quot;#a&quot;)"><path d="M20.494 8.674v.22a.42.42 0 0 1-.42.42h-8.746a.42.42 0 0 1-.42-.42v-.22a.42.42 0 0 1 .42-.42h8.746a.42.42 0 0 1 .42.42" fill-rule="evenodd" data-name="Path 2832"/><path d="M15.811 13.577h-.22a.42.42 0 0 1-.42-.42V4.411a.42.42 0 0 1 .42-.42h.22a.42.42 0 0 1 .42.42v8.746a.42.42 0 0 1-.42.42" fill-rule="evenodd" data-name="Path 2831"/><path d="M8.946 14.733v-9.9c0-1.594-1.314-2.88-2.935-2.88-1.622 0-2.936 1.286-2.936 2.88v9.9A5.985 5.985 0 0 0 0 19.99 6.002 6.002 0 0 0 6.01 26a6.002 6.002 0 0 0 6.012-6.01c0-2.181-1.175-4.166-3.076-5.257ZM6.011 25.161A5.178 5.178 0 0 1 .839 19.99a5.12 5.12 0 0 1 2.852-4.613c.167-.083.251-.251.223-.391V4.833c0-1.118.95-2.04 2.097-2.04 1.118 0 2.04.866 2.097 1.956H6.29a.43.43 0 0 0-.42.42c0 .223.196.419.42.419h1.817v1.957H6.29a.43.43 0 0 0-.42.419c0 .224.196.42.42.42h1.817v1.956H6.29a.43.43 0 0 0-.42.42c0 .223.196.419.42.419h1.817v3.778c0 .168.084.335.223.391a5.194 5.194 0 0 1 2.852 4.641 5.178 5.178 0 0 1-5.172 5.172Z" fill-rule="evenodd" data-name="Path 2830"/><path d="M6.43 17.361v-2.408a.43.43 0 0 0-.419-.419.43.43 0 0 0-.42.42v2.407a2.653 2.653 0 0 0-2.236 2.628 2.673 2.673 0 0 0 2.656 2.656 2.673 2.673 0 0 0 2.656-2.656c0-1.314-.978-2.404-2.237-2.628Zm-.419 4.445a1.813 1.813 0 0 1-1.817-1.817c0-1.006.81-1.817 1.817-1.817s1.817.81 1.817 1.817-.81 1.817-1.817 1.817" fill-rule="evenodd" data-name="Path 2829"/></g><defs><clipPath id="a"><path d="M0 0h20.494v26H0V0z" data-name="Rectangle 846"/></clipPath></defs></svg>