<svg xmlns="http://www.w3.org/2000/svg" width="17" height="20"><g data-name="Group 558" clip-path="url(&quot;#a&quot;)"><path d="M13.35 11.196a.5.5 0 0 0-.51.486c0 1.996-1.992 4.04-3.957 4.04a.476.476 0 0 0-.51.439v.048a.5.5 0 0 0 .51.487c2.501 0 4.977-2.482 4.977-5.013a.5.5 0 0 0-.51-.487Z" fill-rule="evenodd" data-name="Path 2828"/><path d="M14.524 5.866 8.883.146a.575.575 0 0 0-.766 0l-5.641 5.72c-3.318 3.285-3.293 8.494.025 11.78 3.319 3.139 8.68 3.139 11.997 0 3.319-3.286 3.344-8.495.026-11.78Zm-.74 11.074c-2.91 2.774-7.632 2.798-10.542.024l-.026-.024c-1.429-1.388-2.22-3.262-2.195-5.209-.025-1.947.766-3.797 2.195-5.184L8.5 1.193l5.284 5.354c1.43 1.388 2.221 3.237 2.196 5.184.025 1.947-.766 3.821-2.196 5.208Z" fill-rule="evenodd" data-name="Path 2827"/></g><defs><clipPath id="a"><path d="M0 0h17v20H0V0z" data-name="Rectangle 845"/></clipPath></defs></svg>