<svg xmlns="http://www.w3.org/2000/svg" width="40" height="40" viewBox="0 0 40 40">
  <g id="Arrow_right_scroll" transform="translate(-1600 -325)">
    <circle id="Ellipse_386" data-name="Ellipse 386" cx="20" cy="20" r="20" transform="translate(1600 325)" fill="#222"/>
    <path id="Path_989" data-name="Path 989" d="M19.326,35.593H31.5L28.346,38.75a.456.456,0,0,0,.645.646l3.915-3.919.018-.016a.457.457,0,0,0,.134-.324h0a.469.469,0,0,0,0-.091h0a.457.457,0,0,0-.123-.228l-.018-.016-3.927-3.924a.456.456,0,1,0-.645.646L31.5,34.681H19.326a.456.456,0,0,0,0,.912Z" transform="translate(1594.13 310.256)" fill="#fff"/>
  </g>
</svg>
