<svg xmlns="http://www.w3.org/2000/svg" width="21.112" height="21.001" viewBox="0 0 21.112 21.001">
  <path id="Close_menu" d="M6.33,5.91a.454.454,0,0,0-.311.78L15.213,15.9,6.018,25.1a.453.453,0,0,0,.569.706.438.438,0,0,0,.068-.068l9.195-9.207,9.195,9.207a.453.453,0,1,0,.7-.57.439.439,0,0,0-.068-.068L16.487,15.9l9.194-9.207a.451.451,0,1,0-.637-.638L15.85,15.258,6.655,6.051A.452.452,0,0,0,6.33,5.91Z" transform="translate(-5.294 -5.409)" fill="#ff2300" stroke="#000" stroke-width="1" fill-rule="evenodd"/>
</svg>
