<?xml version="1.0" encoding="utf-8"?>
<svg id="Like" width="22" height="20" viewBox="0 0 22 20" xmlns="http://www.w3.org/2000/svg">
  <path id="Path_75" data-name="Path 75" d="M11,20a.865.865,0,0,1-.411-.1,29.224,29.224,0,0,1-5.24-3.748A19.51,19.51,0,0,1,1.707,11.9,10.612,10.612,0,0,1,0,6.33,6.414,6.414,0,0,1,6.492,0,6.547,6.547,0,0,1,11,1.779,6.566,6.566,0,0,1,21.29,3.453,6.216,6.216,0,0,1,22,6.33,10.612,10.612,0,0,1,20.293,11.9a19.571,19.571,0,0,1-3.641,4.248,29.224,29.224,0,0,1-5.24,3.748A.87.87,0,0,1,11,20ZM6.488,1.674A4.72,4.72,0,0,0,1.718,6.33c0,3.522,2.592,6.6,4.767,8.556A28.824,28.824,0,0,0,11,18.187a28.824,28.824,0,0,0,4.514-3.3c2.174-1.959,4.765-5.034,4.765-8.556a4.711,4.711,0,0,0-4.755-4.666,4.807,4.807,0,0,0-3.836,1.874.874.874,0,0,1-1.2.169.851.851,0,0,1-.173-.169A4.771,4.771,0,0,0,6.488,1.674Z" transform="translate(0 0.004)" style="paint-order: fill; stroke: rgb(186, 218, 85); vector-effect: non-scaling-stroke; stroke-width: 0px;"/>
  <ellipse style="stroke: rgb(186, 218, 85); stroke-width: 0px; paint-order: fill; vector-effect: non-scaling-stroke;" cx="10.65" cy="9.234" rx="9.28" ry="6.855"/>
  <ellipse style="stroke: rgb(186, 218, 85); stroke-width: 0px; paint-order: fill; vector-effect: non-scaling-stroke;" cx="10.989" cy="15.824" rx="4.839" ry="2.479"/>
  <ellipse style="stroke: rgb(186, 218, 85); stroke-width: 0px; paint-order: fill; vector-effect: non-scaling-stroke;" cx="16.46" cy="7.562" rx="4.153" ry="5.767"/>
  <ellipse style="stroke: rgb(186, 218, 85); stroke-width: 0px; paint-order: fill; vector-effect: non-scaling-stroke;" cx="6.29" cy="5.516" rx="5.18" ry="3.985"/>
  <ellipse style="stroke: rgb(186, 218, 85); stroke-width: 0px; paint-order: fill; vector-effect: non-scaling-stroke;" cx="16.31" cy="5.391" rx="5.18" ry="3.985"/>
</svg>