<svg id="lk_2" xmlns="http://www.w3.org/2000/svg" width="16" height="16" viewBox="0 0 16 16">
  <g id="Category">
    <path id="Category-2" data-name="Category" d="M11.265,16a2.039,2.039,0,0,1-2.033-2.048V11.225a2.034,2.034,0,0,1,2.033-2.049h2.7A2.039,2.039,0,0,1,16,11.225v2.727A2.043,2.043,0,0,1,13.968,16ZM2.032,16A2.044,2.044,0,0,1,0,13.952V11.225A2.039,2.039,0,0,1,2.032,9.176h2.7a2.034,2.034,0,0,1,2.032,2.049v2.727A2.039,2.039,0,0,1,4.736,16Zm9.233-9.176A2.034,2.034,0,0,1,9.232,4.776V2.049A2.039,2.039,0,0,1,11.265,0h2.7A2.043,2.043,0,0,1,16,2.049V4.776a2.038,2.038,0,0,1-2.032,2.048Zm-9.233,0A2.039,2.039,0,0,1,0,4.776V2.049A2.044,2.044,0,0,1,2.032,0h2.7A2.039,2.039,0,0,1,6.768,2.049V4.776A2.034,2.034,0,0,1,4.736,6.824Z"/>
  </g>
</svg>
