<svg id="lk_3" xmlns="http://www.w3.org/2000/svg" width="18" height="18" viewBox="0 0 18 18">
  <g id="Work">
    <path id="Work-2" data-name="Work" d="M3.575,18A3.446,3.446,0,0,1,.153,14.537L.09,9.889a.19.19,0,0,1,.081-.155.115.115,0,0,1,.064-.018.186.186,0,0,1,.107.036,15.365,15.365,0,0,0,6.3,2.369.65.65,0,0,0,.089.006.678.678,0,0,0,.65-.5,1.641,1.641,0,0,1,1.6-1.239h.028a1.641,1.641,0,0,1,1.6,1.239.678.678,0,0,0,.65.5.646.646,0,0,0,.088-.006,15.365,15.365,0,0,0,6.3-2.369l.036-.019a.165.165,0,0,1,.072-.017.119.119,0,0,1,.063.017.19.19,0,0,1,.081.155l-.072,4.649A3.446,3.446,0,0,1,14.417,18ZM8.32,12.377v1.176A.68.68,0,0,0,9,14.236a.672.672,0,0,0,.676-.683V12.377A.68.68,0,0,0,9,11.693.688.688,0,0,0,8.32,12.377Zm3.243-1.87A2.973,2.973,0,0,0,9,9.023,3.022,3.022,0,0,0,6.41,10.5a.294.294,0,0,1-.249.149.258.258,0,0,1-.05,0A13.972,13.972,0,0,1,1.054,8.6L.189,8a.26.26,0,0,1-.117-.219C.046,7.327,0,5.839,0,5.824A3.456,3.456,0,0,1,3.43,2.351H5.2A2.68,2.68,0,0,1,7.834,0h2.323a2.679,2.679,0,0,1,2.629,2.351H14.57A3.456,3.456,0,0,1,18,5.824c0,.008-.053.822-.072,1.938a.3.3,0,0,1-.116.23c-.424.313-.826.582-.865.6a13.8,13.8,0,0,1-5.083,2.059.272.272,0,0,1-.051,0A.292.292,0,0,1,11.564,10.507ZM6.573,2.351h4.845a1.3,1.3,0,0,0-1.26-.984H7.834A1.3,1.3,0,0,0,6.573,2.351Z"/>
  </g>
</svg>
