<svg id="lk_4" xmlns="http://www.w3.org/2000/svg" width="18" height="18" viewBox="0 0 18 18">
  <g id="Buy">
    <path id="Buy-2" data-name="Buy" d="M13.634,16.613A1.363,1.363,0,1,1,15,18,1.381,1.381,0,0,1,13.634,16.613Zm-10.117,0A1.363,1.363,0,1,1,4.883,18,1.381,1.381,0,0,1,3.517,16.613Zm1.511-2.848a2.258,2.258,0,0,1-1.554-.62,2.354,2.354,0,0,1-.731-1.528L1.916,1.605.558,1.366A.69.69,0,0,1,.688,0a.735.735,0,0,1,.1.008l2.145.33a.691.691,0,0,1,.557.625L3.665,3.02a.555.555,0,0,0,.548.515H16.359a1.52,1.52,0,0,1,1.268.616,2.025,2.025,0,0,1,.342,1.579l-.855,6.025a2.324,2.324,0,0,1-2.275,2.011Zm5.207-6.144a.683.683,0,0,0,.675.689H13.4a.683.683,0,0,0,.675-.689.675.675,0,0,0-.675-.689H10.909A.675.675,0,0,0,10.234,7.621Z"/>
  </g>
</svg>
