<svg id="lk_5" xmlns="http://www.w3.org/2000/svg" width="15" height="18" viewBox="0 0 15 18">
  <g id="Paper">
    <path id="Paper-2" data-name="Paper" d="M4.124,18A4.188,4.188,0,0,1,0,13.761v-9.7A4.005,4.005,0,0,1,3.94,0H8.605a.408.408,0,0,1,.4.414v2.9a2.978,2.978,0,0,0,2.918,3.006c.373,0,.7,0,.99.006l.6,0c.125,0,.285,0,.46,0,.2,0,.429,0,.632,0A.4.4,0,0,1,15,6.723v7.236A3.988,3.988,0,0,1,11.077,18Zm.009-5.724a.674.674,0,0,0,.655.675H9.54a.674.674,0,0,0,.655-.675.662.662,0,0,0-.655-.667H4.788A.662.662,0,0,0,4.133,12.276Zm0-4.491a.661.661,0,0,0,.655.666H7.74A.661.661,0,0,0,8.4,7.785.674.674,0,0,0,7.74,7.11H4.788A.674.674,0,0,0,4.133,7.785ZM12.042,5A1.8,1.8,0,0,1,10.28,3.188V.816A.416.416,0,0,1,11,.515l3.517,3.768a.43.43,0,0,1-.3.726h-.61C13.053,5.01,12.485,5.008,12.042,5Z"/>
  </g>
</svg>
