<svg id="lk_6" xmlns="http://www.w3.org/2000/svg" width="17" height="18" viewBox="0 0 17 18">
  <g id="Setting">
    <path id="Setting-2" data-name="Setting" d="M9.124,18H7.88a1.854,1.854,0,0,1-1.9-1.845,1.708,1.708,0,0,0-1.683-1.638,1.408,1.408,0,0,0-.8.207,1.928,1.928,0,0,1-.97.27,1.9,1.9,0,0,1-1.628-.936L.262,12.978a1.812,1.812,0,0,1-.019-1.845,1.892,1.892,0,0,1,.731-.71,1.483,1.483,0,0,0,.577-.576,1.612,1.612,0,0,0,.17-1.229A1.652,1.652,0,0,0,.957,7.6,1.828,1.828,0,0,1,.085,6.472,1.852,1.852,0,0,1,.28,5.049L.893,3.987A1.893,1.893,0,0,1,3.472,3.3a1.687,1.687,0,0,0,.8.2,1.751,1.751,0,0,0,1.493-.823,1.391,1.391,0,0,0,.211-.792A1.616,1.616,0,0,1,6.234.936,1.969,1.969,0,0,1,7.852,0H9.142A1.925,1.925,0,0,1,10.77.936a1.61,1.61,0,0,1,.246.953,1.4,1.4,0,0,0,.21.792,1.755,1.755,0,0,0,1.5.823,1.715,1.715,0,0,0,.809-.2,1.882,1.882,0,0,1,2.57.684l.612,1.062A1.83,1.83,0,0,1,16.038,7.6a1.646,1.646,0,0,0-.764,1.024,1.6,1.6,0,0,0,.178,1.226,1.41,1.41,0,0,0,.567.576,2.07,2.07,0,0,1,.741.71,1.837,1.837,0,0,1-.018,1.845l-.64,1.081a1.872,1.872,0,0,1-2.589.666,1.444,1.444,0,0,0-.8-.207,1.7,1.7,0,0,0-1.692,1.638A1.85,1.85,0,0,1,9.124,18ZM8.511,6.462a2.575,2.575,0,0,0-2.6,2.547,2.494,2.494,0,0,0,.76,1.8,2.615,2.615,0,0,0,1.837.739,2.542,2.542,0,0,0,1.824-4.342A2.567,2.567,0,0,0,8.511,6.462Z"/>
  </g>
</svg>
