<svg id="lk_calendar" xmlns="http://www.w3.org/2000/svg" xmlns:xlink="http://www.w3.org/1999/xlink" width="16" height="17" viewBox="0 0 16 17">
  <defs>
    <clipPath id="clip-path">
      <rect id="Rectangle_3040" data-name="Rectangle 3040" width="16" height="17" fill="none"/>
    </clipPath>
  </defs>
  <g id="Group_5103" data-name="Group 5103" clip-path="url(#clip-path)">
    <path id="Path_7121" data-name="Path 7121" d="M14.075,1.537H11.555V.773A.758.758,0,0,0,10.815,0a.75.75,0,0,0-.729.648.654.654,0,0,0-.012.125v.764H5.63V.773A.759.759,0,0,0,4.889,0,.75.75,0,0,0,4.16.648a.637.637,0,0,0-.012.125v.764H2.223A2.272,2.272,0,0,0,0,3.711V14.844A2.232,2.232,0,0,0,2.223,17H14.075A1.994,1.994,0,0,0,16,14.844V3.711a2,2,0,0,0-1.925-2.174Zm.74,13.307c0,.427-.195.919-.74.919H2.223a1.042,1.042,0,0,1-1.038-.919V8.031h13.63Zm0-8.05H1.185V3.711a1.059,1.059,0,0,1,1.038-.937H4.148V3.866a.629.629,0,0,0,.012.125.738.738,0,0,0,1.47-.125V2.774h4.444V3.866a.659.659,0,0,0,.012.125.738.738,0,0,0,1.47-.125V2.774h2.519c.508,0,.74.469.74.937Z"/>
  </g>
</svg>
