<svg id="lk_edit_2" xmlns="http://www.w3.org/2000/svg" xmlns:xlink="http://www.w3.org/1999/xlink" width="17" height="17" viewBox="0 0 17 17">
  <defs>
    <clipPath id="clip-path">
      <rect id="Rectangle_3075" data-name="Rectangle 3075" width="17" height="17" fill="none"/>
    </clipPath>
  </defs>
  <g id="Group_5114" data-name="Group 5114" clip-path="url(#clip-path)">
    <path id="Path_7128" data-name="Path 7128" d="M280.47,2.43h5.119L284.46,1.3V6.422a1.132,1.132,0,0,0,1.13,1.13,1.14,1.14,0,0,0,.8-.332,1.173,1.173,0,0,0,.331-.8V1.3A1.147,1.147,0,0,0,285.59.17h-5.119a1.163,1.163,0,0,0-.8.332,1.156,1.156,0,0,0-.331.8,1.141,1.141,0,0,0,.331.8,1.168,1.168,0,0,0,.8.332Z" transform="translate(-269.723 -0.164)"/>
    <path id="Path_7129" data-name="Path 7129" d="M183.18,10.47l7.452-7.455c.345-.345.691-.686,1.032-1.032l.015-.015a1.164,1.164,0,0,0,.331-.8,1.132,1.132,0,0,0-1.13-1.13,1.175,1.175,0,0,0-.8.332l-.845.846q-1.019,1.017-2.031,2.031L184.75,5.7l-2.122,2.123c-.345.345-.691.686-1.032,1.032l-.015.015a1.164,1.164,0,0,0-.331.8,1.132,1.132,0,0,0,1.132,1.13,1.175,1.175,0,0,0,.8-.332Z" transform="translate(-175.01 -0.037)"/>
    <path id="Path_7130" data-name="Path 7130" d="M14.739,10.4V14.12a4.648,4.648,0,0,1-.013.627c.013-.1.026-.2.04-.3a1.435,1.435,0,0,1-.087.316c.038-.09.075-.181.113-.269a1.441,1.441,0,0,1-.173.3l.177-.228a1.483,1.483,0,0,1-.243.243l.228-.177a1.393,1.393,0,0,1-.3.173l.269-.113a1.405,1.405,0,0,1-.316.087l.3-.04a3.567,3.567,0,0,1-.471.013H3.883c-.478,0-.956,0-1.433,0a1.319,1.319,0,0,1-.192-.013l.3.04a1.434,1.434,0,0,1-.316-.087l.269.113a1.44,1.44,0,0,1-.3-.173l.228.177a1.485,1.485,0,0,1-.243-.243l.177.228a1.393,1.393,0,0,1-.173-.3c.038.09.075.181.113.269a1.41,1.41,0,0,1-.087-.316c.013.1.026.2.04.3a3.56,3.56,0,0,1-.013-.471V3.89c0-.478,0-.957,0-1.433a1.311,1.311,0,0,1,.013-.192c-.013.1-.026.2-.04.3a1.438,1.438,0,0,1,.087-.316c-.038.09-.075.181-.113.269a1.441,1.441,0,0,1,.173-.3L2.2,2.447A1.485,1.485,0,0,1,2.441,2.2l-.228.177a1.4,1.4,0,0,1,.3-.173l-.269.113a1.405,1.405,0,0,1,.316-.087l-.3.04a4.129,4.129,0,0,1,.529-.013H6.6a1.163,1.163,0,0,0,.8-.332,1.155,1.155,0,0,0,.331-.8A1.14,1.14,0,0,0,7.4.332,1.171,1.171,0,0,0,6.6,0H2.719a3.143,3.143,0,0,0-.983.1,2.266,2.266,0,0,0-.642.307A3.49,3.49,0,0,0,.735.7a2.931,2.931,0,0,0-.307.375A2.376,2.376,0,0,0,0,2.413C0,2.648,0,2.884,0,3.119v10.85a6.218,6.218,0,0,0,.06,1.123,1.251,1.251,0,0,0,.06.218,3.537,3.537,0,0,0,.2.45,2.326,2.326,0,0,0,.416.541,2.369,2.369,0,0,0,1.224.646A3.9,3.9,0,0,0,2.584,17H14.391c.085,0,.171,0,.256,0a2.381,2.381,0,0,0,.706-.136,3.182,3.182,0,0,0,.425-.19,2.971,2.971,0,0,0,.4-.3,2.411,2.411,0,0,0,.448-.529,2.335,2.335,0,0,0,.279-.631,3.446,3.446,0,0,0,.09-.961V10.4a1.132,1.132,0,0,0-1.13-1.13,1.14,1.14,0,0,0-.8.332,1.2,1.2,0,0,0-.329.806Z" transform="translate(0 0)"/>
  </g>
</svg>
