<svg id="lk_edit_1" xmlns="http://www.w3.org/2000/svg" xmlns:xlink="http://www.w3.org/1999/xlink" width="20.001" height="18" viewBox="0 0 20.001 18">
  <defs>
    <clipPath id="clip-path">
      <rect id="Rectangle_3074" data-name="Rectangle 3074" width="20.001" height="18" fill="none"/>
    </clipPath>
  </defs>
  <g id="Group_5112" data-name="Group 5112" clip-path="url(#clip-path)">
    <path id="Path_7126" data-name="Path 7126" d="M18.864,4.574H19.7V3.326a.416.416,0,0,0-.281-.391L10.209.025a.4.4,0,0,0-.276,0L.28,2.936A.416.416,0,0,0,0,3.326V4.574Z" transform="translate(0 0)"/>
    <path id="Path_7127" data-name="Path 7127" d="M21.786,261H2.763a.418.418,0,0,0-.419.416v1.663a.418.418,0,0,0,.419.416H21.786a.418.418,0,0,0,.419-.416v-1.663a.418.418,0,0,0-.419-.416" transform="translate(-2.204 -245.492)"/>
    <rect id="Rectangle_3071" data-name="Rectangle 3071" width="4.187" height="8.317" transform="translate(7.977 5.881)"/>
    <rect id="Rectangle_3072" data-name="Rectangle 3072" width="4.187" height="8.317" transform="translate(14.258 5.881)"/>
    <rect id="Rectangle_3073" data-name="Rectangle 3073" width="4.187" height="8.317" transform="translate(1.696 5.881)"/>
  </g>
</svg>
