<svg xmlns="http://www.w3.org/2000/svg" width="17" height="19" viewBox="0 0 17 19">
  <g id="lk_edit_3" opacity="0.5">
    <g id="Delete">
      <path id="Delete-2" data-name="Delete" d="M4.848,18.961a2.761,2.761,0,0,1-2.78-2.688l-.12-1.2-.211-2.321-.215-2.547L1.281,4.74H.69A.715.715,0,0,1,.6,3.321L.69,3.315H3.7a.829.829,0,0,0,.782-.58l.028-.1.233-1.2A1.886,1.886,0,0,1,6.4.006L6.551,0h3.9a1.879,1.879,0,0,1,1.771,1.321l.045.153.223,1.156a.837.837,0,0,0,.7.677l.105.008h3.01A.714.714,0,0,1,16.4,4.733l-.093.007h-.595l-.3,6.168-.312,3.57c-.066.712-.125,1.314-.176,1.787a2.782,2.782,0,0,1-2.846,2.7Q10.266,19,8.511,19,6.648,19,4.848,18.961ZM2.9,10.088l.253,2.971c.112,1.286.211,2.327.289,3.057a1.377,1.377,0,0,0,1.436,1.42c2.317.05,4.7.05,7.184,0a1.4,1.4,0,0,0,1.5-1.432l.12-1.19c.035-.367.073-.772.112-1.212l.253-2.922.292-6.045H2.67Zm8.354-6.773a2.33,2.33,0,0,1-.082-.249l-.036-.157L10.921,1.8a.493.493,0,0,0-.39-.366l-.082-.007h-3.9a.5.5,0,0,0-.437.264l-.025.064L5.865,2.909a2.333,2.333,0,0,1-.118.406Z" fill="#222"/>
    </g>
  </g>
</svg>
