<svg xmlns="http://www.w3.org/2000/svg" width="45" height="45" viewBox="0 0 45 45">
  <g id="lk_profile" transform="translate(-1736 -453)">
    <circle id="Ellipse_399" data-name="Ellipse 399" cx="22.5" cy="22.5" r="22.5" transform="translate(1736 453)" fill="#6b6b6b"/>
    <g id="Профиль" transform="translate(1696 265)">
      <g id="Group_5015" data-name="Group 5015" transform="translate(49.617 200.5)">
        <path id="Path_197" data-name="Path 197" d="M59.49,11.474a5.93,5.93,0,0,0,5.9-5.943,6.058,6.058,0,0,0-1.729-4.279A5.812,5.812,0,0,0,59.49-.5,6.018,6.018,0,0,0,53.5,5.531a5.868,5.868,0,0,0,1.773,4.2A5.976,5.976,0,0,0,59.49,11.474Zm0-10.037a4.051,4.051,0,0,1,0,8.1,4,4,0,0,1-3.979-4.006A4.042,4.042,0,0,1,59.49,1.437Z" transform="translate(-46.617)" fill="#fff"/>
        <path id="Path_198" data-name="Path 198" d="M23.353,157.223a8.967,8.967,0,0,0-8.637-6.723H11.032a8.755,8.755,0,0,0-5.482,1.919,9.072,9.072,0,0,0-3.135,4.775.981.981,0,0,0,.17.852.957.957,0,0,0,.765.377.977.977,0,0,0,.94-.736,6.947,6.947,0,0,1,6.741-5.163h3.684a6.947,6.947,0,0,1,6.741,5.163.977.977,0,0,0,.94.736h.014a.967.967,0,0,0,.769-.378A.953.953,0,0,0,23.353,157.223Z" transform="translate(0 -137.924)" fill="#fff"/>
      </g>
    </g>
  </g>
</svg>
