<svg xmlns="http://www.w3.org/2000/svg" xmlns:xlink="http://www.w3.org/1999/xlink" width="221.108" height="35.178" viewBox="0 0 221.108 35.178">
  <defs>
    <clipPath id="clip-path">
      <rect id="Rectangle_2" data-name="Rectangle 2" width="221.108" height="35.178" fill="none"/>
    </clipPath>
  </defs>
  <g id="Логотип" transform="translate(-849 -77.632)">
    <path id="Path_1" data-name="Path 1" d="M621.829,188.519v7.13h4.953v-.8h-4v-2.466h3.7v-.8h-3.7v-2.267h3.974v-.8Z" transform="translate(319.688 -82.839)" fill="#1d1d1b"/>
    <path id="Path_2" data-name="Path 2" d="M684.314,188.519v7.13h4.723v-.8h-3.775v-6.331Z" transform="translate(266.498 -82.839)" fill="#1d1d1b"/>
    <rect id="Rectangle_1" data-name="Rectangle 1" width="0.949" height="7.13" transform="translate(959.6 105.679)" fill="#1d1d1b"/>
    <path id="Path_3" data-name="Path 3" d="M776.867,188.519v.8h2.377v6.331h.949v-6.331h2.377v-.8Z" transform="translate(187.715 -82.839)" fill="#1d1d1b"/>
    <path id="Path_4" data-name="Path 4" d="M841.971,188.519v7.13h4.953v-.8h-4v-2.466h3.7v-.8h-3.7v-2.267h3.974v-.8Z" transform="translate(132.299 -82.839)" fill="#1d1d1b"/>
    <g id="Group_2" data-name="Group 2" transform="translate(849 77.632)">
      <g id="Group_1" data-name="Group 1" clip-path="url(#clip-path)">
        <path id="Path_5" data-name="Path 5" d="M118.495,45.973l-.258.7a3.934,3.934,0,0,1-.775.078q-.362,0-1.111-.078t-1.137-.078a9.253,9.253,0,0,0-.969.078,9.261,9.261,0,0,1-.995.078,5.511,5.511,0,0,1-.62-.026l.258-.672h.568q1.008,0,1.008-.514,0-.282-1.472-4.4a3.677,3.677,0,0,0-1.5-.257h-2.868a4.524,4.524,0,0,0-1.679.233q-1.55,4.107-1.55,4.366a.574.574,0,0,0,.233.517q.568.052.852.052a3.945,3.945,0,0,0,.775-.078l-.258.7a2.761,2.761,0,0,1-.672.078,4.645,4.645,0,0,1-.7-.078,4.655,4.655,0,0,0-.672-.078,6.6,6.6,0,0,0-.814.078,6.612,6.612,0,0,1-.839.078,5.66,5.66,0,0,1-.62-.025l.258-.672h.336a1.7,1.7,0,0,0,.646-.168q.387-.168,1.137-1.98l3.643-8.771q.49-1.164.982-2.3a21.907,21.907,0,0,0,.852-2.381l.517-.1a39.727,39.727,0,0,0,1.55,4.813q.955,2.329,1.886,4.683,1.292,3.286,1.292,3.312A8.018,8.018,0,0,0,117.358,46a5.355,5.355,0,0,0,.594.052,1.881,1.881,0,0,0,.543-.078m-5.942-5.967q-.568-1.55-1.162-3.1a23.094,23.094,0,0,0-1.369-3,31.688,31.688,0,0,0-2.17,5.063,8.976,8.976,0,0,1-.413,1.007,2.271,2.271,0,0,0,1.343.31h2.661a1.538,1.538,0,0,0,1.111-.284" transform="translate(-87.407 -25.829)" fill="#1d1d1b"/>
        <path id="Path_6" data-name="Path 6" d="M230.02,32.8l-.258.673H229.5a4.653,4.653,0,0,0-1.188.181.754.754,0,0,0-.387.155,11.182,11.182,0,0,0-.388,3.513L227.2,49q-7.569-7.491-13.485-12.865l-.129,10.594q0,1.135.258,1.341.439.026,1.343.026a11.122,11.122,0,0,0,1.266-.052l-.258.7a3.945,3.945,0,0,1-.775.078q-.362,0-1.111-.052t-1.137-.052q-.362,0-1.085.052t-1.085.052a6.116,6.116,0,0,1-.672-.026l.258-.7h.258a3.573,3.573,0,0,0,1.188-.181,1.916,1.916,0,0,0,.439-.155q.31-.414.336-3.52l.078-8.152q0-1.5-.026-1.682a1.051,1.051,0,0,0-1.007-.906q-.259-.025-.517-.026a3.018,3.018,0,0,0-.853.129l.233-.744a5.44,5.44,0,0,1,1.111-.083q.233,0,1.395.078.853.026,1.395,0a1.134,1.134,0,0,0,.155.671q.413.414,1.188,1.266,1.42,1.5,7.879,7.672.878.775,2.428,2.428.49-1.085.491-10.049,0-1.136-.258-1.343-.44-.025-1.343-.026H223.9l.258-.628a4.36,4.36,0,0,1,.775-.07q.387,0,1.137.052t1.111.051q.362,0,1.085-.051t1.085-.052a6.384,6.384,0,0,1,.672.025" transform="translate(-179.041 -27.898)" fill="#1d1d1b"/>
        <path id="Path_7" data-name="Path 7" d="M360.287,28.507a19.036,19.036,0,0,0-.8,3.022l-.387-.1.026-.31a1.341,1.341,0,0,0-.517-1.369,3.192,3.192,0,0,0-1.447-.233q-1.162,0-3.487.026-.595.595-.594,4.495,0,7.1.051,8.4a5.273,5.273,0,0,0,.078.8,1.013,1.013,0,0,0,.387.7q.568.052.853.052a3.947,3.947,0,0,0,.775-.078l-.258.7a3.933,3.933,0,0,1-.775.078q-.362,0-1.111-.078t-1.137-.078q-.387,0-1.188.078t-1.214.078q-.465,0-.7-.025l.233-.672h.646a1.933,1.933,0,0,0,.827-.18q.594-.283.723-2.754.026-.334.026-3.218,0-7.49-.542-8.185a25.713,25.713,0,0,0-3.229-.129q-3,0-3.281,1.757l-.388-.207q.361-1.059,1.059-3.151,1.033.595,1.292.7a5.215,5.215,0,0,0,1.473.155H357.7a3.244,3.244,0,0,0,2.247-.646Z" transform="translate(-292.698 -23.76)" fill="#1d1d1b"/>
        <path id="Path_8" data-name="Path 8" d="M468.888,45.62l-.827,3.074q-.259-.026-3.332-.026-1.06,0-3.2-.052t-3.229-.052q-.387,0-1.149.065t-1.124.065a5.974,5.974,0,0,1-.62-.024l.233-.648h.62a2.1,2.1,0,0,0,.852-.181q.749-.31.749-4.108,0-5.063-.1-7.724a12.645,12.645,0,0,0-.129-1.55q-.233-.981-.93-1.059a4.339,4.339,0,0,0-.517-.026,4.891,4.891,0,0,0-.853.078l.258-.7a3.957,3.957,0,0,1,.775-.077q.387,0,1.137.051t1.111.052q1.757,0,4.495-.077,3.746-.1,4.495-.1a21,21,0,0,0,.284,3.358l-.594-.155q-.052-.413-.1-.7a2.072,2.072,0,0,0-.865-1.292,2.563,2.563,0,0,0-1.537-.517l-4.727.155a6.064,6.064,0,0,0-.387,2.635q0,2.583.026,3.875a1.794,1.794,0,0,0,1.1.207q3.924,0,4.527-.051a1,1,0,0,0,.859-.543,4.368,4.368,0,0,0,.282-1.059l.385.026q0,.387-.039,1.2t-.039,1.227q0,.31.039.93t.039.93l-.491.026q-.026-.49-.052-.982-.1-.672-.441-.775-.285-.31-4.823-.31a2.971,2.971,0,0,0-1.374.18v3.514a8.363,8.363,0,0,0,.439,3.155,5.044,5.044,0,0,0,2.2.385q2.015,0,2.79-.076a4.151,4.151,0,0,0,2.557-.911,4.084,4.084,0,0,0,.827-1.467Z" transform="translate(-387.582 -27.75)" fill="#1d1d1b"/>
        <path id="Path_9" data-name="Path 9" d="M567.819,48.189l-.284.7a3.812,3.812,0,0,1-.749.078q-.362,0-1.111-.078t-1.137-.077q-.387,0-1.188.077t-1.214.078q-.465,0-.7-.025l.233-.672h.646a1.935,1.935,0,0,0,.826-.18q.749-.334.749-4.067V42.63q-.026-.926-.026-1.39-4.185-.052-6.277-.052h-4.34q-.827.026-1.24.026,0,4.16.078,5.5a4.793,4.793,0,0,0,.077.8.989.989,0,0,0,.362.7q.568.052.853.052a3.945,3.945,0,0,0,.775-.078l-.284.7a3.811,3.811,0,0,1-.749.078q-.362,0-1.111-.078t-1.137-.077q-.388,0-1.188.077t-1.214.078q-.465,0-.7-.025l.232-.672h.646a1.932,1.932,0,0,0,.827-.181q.749-.335.749-4.056,0-5.063-.1-7.75a12.642,12.642,0,0,0-.129-1.55q-.233-.981-.93-1.059a4.372,4.372,0,0,0-.516-.026,3.733,3.733,0,0,0-.853.1l.284-.721a3.7,3.7,0,0,1,.749-.08q.387,0,1.137.052t1.111.052q.413,0,1.214-.052t1.188-.052q.465,0,.7.025l-.258.672h-1.137q-.672.672-.672,6.717h7.879q2.635,0,3.953-.026V39.169q.025-.83-.078-2.879-.077-1.27-.129-1.556-.233-.985-.9-1.063a4.378,4.378,0,0,0-.517-.026,3.732,3.732,0,0,0-.852.1l.284-.721a3.7,3.7,0,0,1,.749-.08q.387,0,1.137.052t1.111.052q.413,0,1.214-.052t1.188-.052q.465,0,.7.025l-.258.672h-1.137q-.517.517-.646,3.694-.026.672-.026,3.952,0,4.082.077,5.425a4.816,4.816,0,0,0,.078.8.988.988,0,0,0,.362.7q.568.052.852.052a3.946,3.946,0,0,0,.775-.078" transform="translate(-466.209 -28.046)" fill="#1d1d1b"/>
        <path id="Path_10" data-name="Path 10" d="M14.452,15.437A4.98,4.98,0,0,1,12.12,19.9,9.357,9.357,0,0,1,7,21.185a19.944,19.944,0,0,1-3.514-.46,17.523,17.523,0,0,0-1.741-.3.831.831,0,0,0-.69.493L.558,20.43l.033-.985A9.911,9.911,0,0,0,0,15.831,1.4,1.4,0,0,0,.723,15.7a6.069,6.069,0,0,0,2.233,3.514,7.456,7.456,0,0,0,4.2,1.018q5.025,0,5.025-3.843,0-2.693-2.923-4.073-2.727-1.051-5.485-2.135A5.1,5.1,0,0,1,.854,5.419a4.524,4.524,0,0,1,2.4-3.876A8.349,8.349,0,0,1,7.817.23a15.443,15.443,0,0,1,3.219.329,7.364,7.364,0,0,0,1.018.164q.558,0,.657-.723l.427.066q-.165,1.643-.164,2a7.966,7.966,0,0,0,.148,1.264,8.021,8.021,0,0,1,.148,1.3V4.8l-.624-.033a3.492,3.492,0,0,0-1.708-2.923,6.4,6.4,0,0,0-3.383-.821,5.14,5.14,0,0,0-3.022.92A3.228,3.228,0,0,0,3.087,4.664q0,2.3,2.956,3.646L11.5,10.543a5.371,5.371,0,0,1,2.956,4.894" fill="#1d1d1b"/>
        <path id="Path_11" data-name="Path 11" d="M839.292,39.868a8,8,0,0,1-2.415,5.941,8.191,8.191,0,0,1-5.98,2.377,8.281,8.281,0,0,1-5.929-2.325,7.665,7.665,0,0,1-2.441-5.787,7.886,7.886,0,0,1,2.609-5.967,8.558,8.558,0,0,1,6.071-2.377,7.731,7.731,0,0,1,5.683,2.428,7.856,7.856,0,0,1,2.4,5.709m-2.118.7a8.893,8.893,0,0,0-1.757-5.425,5.885,5.885,0,0,0-4.908-2.609,5.305,5.305,0,0,0-4.366,1.989,7.255,7.255,0,0,0-1.5,4.7,8.941,8.941,0,0,0,1.783,5.606,6.108,6.108,0,0,0,5.115,2.558,5,5,0,0,0,4.288-2.093,7.8,7.8,0,0,0,1.343-4.727" transform="translate(-700.151 -27.009)" fill="#1d1d1b"/>
        <path id="Path_12" data-name="Path 12" d="M954.148,48.187l-.258.7a3.935,3.935,0,0,1-.775.078q-.362,0-1.111-.052t-1.137-.051q-.387,0-1.188.051t-1.214.052q-.465,0-.7-.025l.233-.7h.646q1.524,0,1.524-2.495,0-6.275-.233-9.208l-.232-.051q-4.16,7.931-6.123,12.012l-.336.129q-1.421-3.151-6.019-12.012l-.284.052a101.891,101.891,0,0,0-.465,10.233,5.925,5.925,0,0,0,.026.7.83.83,0,0,0,.258.592q.568.052.852.052a5.821,5.821,0,0,0,.775-.052l-.258.7a3.936,3.936,0,0,1-.775.078q-.362,0-1.111-.052t-1.137-.051a5.922,5.922,0,0,0-.659.051,5.839,5.839,0,0,1-.607.052q-.129,0-.542-.048l.232-.675h.646a1.77,1.77,0,0,0,.8-.18q.594-.284.723-1.444.051-.877.078-1.753.439-8.613.439-9.593a1.9,1.9,0,0,0-.323-1.276,1.7,1.7,0,0,0-1.253-.348,3.733,3.733,0,0,0-.852.1l.232-.721a6.029,6.029,0,0,1,1.137-.08h1.524q.9.026,1.5,0a.939.939,0,0,0-.129.545,3.291,3.291,0,0,0,.388,1.375q2.764,5.681,5.528,10.557.645-.93,3.384-6.174a49.029,49.029,0,0,0,2.816-5.787.49.49,0,0,0-.129-.362q.439,0,1.55-.078,1.007-.077,1.576-.077.465,0,.7.025l-.258.672h-1.137c-.052.035-.138.086-.258.155a4.723,4.723,0,0,0-.336,2.347q0,6.6.207,10.547.025.645.052.8a1.012,1.012,0,0,0,.388.7q.568.052.853.052a5.821,5.821,0,0,0,.775-.052" transform="translate(-794.444 -28.044)" fill="#1d1d1b"/>
        <path id="Path_13" data-name="Path 13" d="M1087.364,35.957l-.594-.155q-.052-.413-.1-.7a2.072,2.072,0,0,0-.865-1.292,2.562,2.562,0,0,0-1.537-.517l-4.727.155a5.978,5.978,0,0,0-.388,2.609q0,2.635.026,3.952a3.2,3.2,0,0,0,1.1.155q3.924,0,4.527-.052a1,1,0,0,0,.859-.542,4.371,4.371,0,0,0,.282-1.059l.385.026q0,.388-.039,1.2t-.039,1.227q0,.31.039.93t.039.93l-.465.078q-.078-.955-.077-.982-.1-.749-.309-.853a8.488,8.488,0,0,0-2.882-.31,15.455,15.455,0,0,0-3.448.207v1.757q0,4.857.511,5.193.561.052.842.051a3.862,3.862,0,0,0,.766-.077l-.284.7a3.811,3.811,0,0,1-.749.078q-.362,0-1.111-.052t-1.136-.052q-.388,0-1.188.052t-1.214.052q-.465,0-.7-.025l.232-.673h.646a1.934,1.934,0,0,0,.827-.18q.749-.335.749-4.048,0-5.054-.1-7.737a12.6,12.6,0,0,0-.129-1.547q-.233-.98-.93-1.057a4.306,4.306,0,0,0-.516-.026,4.906,4.906,0,0,0-.853.078l.284-.7a3.82,3.82,0,0,1,.749-.078q.387,0,1.137.052t1.111.052q1.756,0,4.495-.078,3.745-.1,4.495-.1a21.014,21.014,0,0,0,.284,3.358" transform="translate(-914.898 -27.749)" fill="#1d1d1b"/>
        <path id="Path_14" data-name="Path 14" d="M1179.776,39.868a8,8,0,0,1-2.415,5.941,8.191,8.191,0,0,1-5.98,2.377,8.28,8.28,0,0,1-5.929-2.325,7.664,7.664,0,0,1-2.441-5.787,7.886,7.886,0,0,1,2.609-5.967,8.558,8.558,0,0,1,6.071-2.377,7.73,7.73,0,0,1,5.683,2.428,7.856,7.856,0,0,1,2.4,5.709m-2.118.7a8.893,8.893,0,0,0-1.757-5.425,5.885,5.885,0,0,0-4.908-2.609,5.305,5.305,0,0,0-4.366,1.989,7.256,7.256,0,0,0-1.5,4.7,8.941,8.941,0,0,0,1.782,5.606,6.109,6.109,0,0,0,5.115,2.558,5,5,0,0,0,4.288-2.093,7.8,7.8,0,0,0,1.343-4.727" transform="translate(-989.978 -27.009)" fill="#1d1d1b"/>
        <path id="Path_15" data-name="Path 15" d="M1296.444,48.2l-.541.491a13.943,13.943,0,0,1-4.769-2.79,21.2,21.2,0,0,1-2.938-4.727q-1.5.155-2.217.155a7.082,7.082,0,0,1-1.057-.078v2.48q0,3.281.485,3.591.561.052.842.052a3.857,3.857,0,0,0,.766-.078l-.284.7a3.823,3.823,0,0,1-.749.078q-.362,0-1.111-.078t-1.137-.078q-.387,0-1.188.078t-1.214.078q-.465,0-.7-.025l.233-.672h.646a1.934,1.934,0,0,0,.826-.18q.749-.335.75-4.048,0-5.054-.1-7.737a12.668,12.668,0,0,0-.129-1.547q-.232-.979-.93-1.057a4.34,4.34,0,0,0-.517-.026,4.888,4.888,0,0,0-.852.078l.258-.7a3.945,3.945,0,0,1,.775-.077q.361,0,1.1.064t1.072.065q.749,0,2.209-.155t2.183-.155a4.928,4.928,0,0,1,3.333,1.317,4.211,4.211,0,0,1,1.55,3.2q0,2.764-3.178,4.314a24.625,24.625,0,0,0,3.9,5.683,8.744,8.744,0,0,0,2.687,1.782m-5.451-11.082a4.855,4.855,0,0,0-1.111-3.281,3.78,3.78,0,0,0-3.022-1.292q-1.627,0-1.757.646a44.413,44.413,0,0,0-.181,5.58v1.886a11.966,11.966,0,0,0,1.4.052q4.675-.052,4.676-3.591" transform="translate(-1090.035 -27.157)" fill="#1d1d1b"/>
        <path id="Path_16" data-name="Path 16" d="M1392.136,28.505a19.022,19.022,0,0,0-.8,3.022l-.387-.1.026-.31a1.341,1.341,0,0,0-.517-1.369,3.191,3.191,0,0,0-1.447-.233q-1.163,0-3.488.026-.594.595-.594,4.495,0,7.1.052,8.4a5.258,5.258,0,0,0,.078.8,1.013,1.013,0,0,0,.387.7q.568.052.853.052a3.946,3.946,0,0,0,.775-.078l-.258.7a3.932,3.932,0,0,1-.775.078q-.362,0-1.111-.078t-1.137-.078q-.387,0-1.188.078t-1.214.078q-.465,0-.7-.025l.233-.672h.646a1.934,1.934,0,0,0,.827-.18q.594-.283.723-2.754.026-.334.026-3.218,0-7.49-.542-8.185a25.716,25.716,0,0,0-3.229-.129q-3,0-3.281,1.757l-.387-.207q.361-1.059,1.059-3.151,1.033.595,1.292.7a5.214,5.214,0,0,0,1.473.155h10.023a3.244,3.244,0,0,0,2.247-.646Z" transform="translate(-1171.028 -23.758)" fill="#1d1d1b"/>
        <path id="Path_17" data-name="Path 17" d="M712.76,19.91l-.337.911a4.2,4.2,0,0,1-.945.1,9.524,9.524,0,0,1-1.164-.1,9.414,9.414,0,0,0-1.13-.1,12.089,12.089,0,0,0-1.3.1,12.155,12.155,0,0,1-1.3.1,7.183,7.183,0,0,1-.81-.034l.371-.908q.573,0,.506-.2l-3.206-3.33q-1.417-1.58-2.868-3.128-2.429-2.623-2.767-2.624-.3,0-1.012.675,0,4.961.1,6.614a5.685,5.685,0,0,0,.1,1.046,1.29,1.29,0,0,0,.473.911q.742.068,1.114.067a5.143,5.143,0,0,0,1.012-.1l-.371.911a4.993,4.993,0,0,1-.979.1q-.473,0-1.451-.1t-1.485-.1q-.506,0-1.552.1t-1.586.1q-.607,0-.911-.033l.3-.879h.844a2.522,2.522,0,0,0,1.08-.236q.978-.438.979-5.3,0-6.613-.135-10.124a16.489,16.489,0,0,0-.169-2.025q-.3-1.282-1.215-1.384a5.666,5.666,0,0,0-.675-.034,4.871,4.871,0,0,0-1.114.135L691.534.1a4.839,4.839,0,0,1,.979-.1q.506,0,1.485.084t1.451.084q.539,0,1.586-.084T698.587,0q.607,0,.911.033l-.338.878a4.535,4.535,0,0,0-.776,0l-.709.034q-.878.878-.877,8.875.27-.135.776-.406a26.085,26.085,0,0,0,4.758-3.929q3.341-3.252,3.307-4.539l-.675-.034a3.63,3.63,0,0,0-1.114.135L704.222.1A2.512,2.512,0,0,1,704.9,0a6.575,6.575,0,0,1,.878.084,6.408,6.408,0,0,0,.844.084q.539,0,1.586-.084T709.757,0q.607,0,.911.033l-.337.878h-1.485A14.708,14.708,0,0,0,706.045,3q-1.316,1.213-2.6,2.425-.979.842-2.9,2.56a1.717,1.717,0,0,0-.709,1.112q0,.775,10.8,10.847.742.068,1.114.067a5.146,5.146,0,0,0,1.012-.1" transform="translate(-588.331 0)" fill="#1d1d1b"/>
      </g>
    </g>
  </g>
</svg>
