<svg id="pay_google" xmlns="http://www.w3.org/2000/svg" xmlns:xlink="http://www.w3.org/1999/xlink" width="64.25" height="25.514" viewBox="0 0 64.25 25.514">
  <defs>
    <clipPath id="clip-path">
      <rect id="Rectangle_3108" data-name="Rectangle 3108" width="64.25" height="25.514" fill="none"/>
    </clipPath>
  </defs>
  <g id="Group_5137" data-name="Group 5137" clip-path="url(#clip-path)">
    <path id="Path_7136" data-name="Path 7136" d="M192.47,20.988v7.479H190.1V10h6.292a5.69,5.69,0,0,1,4.075,1.6,5.14,5.14,0,0,1,1.7,3.9,5.116,5.116,0,0,1-1.7,3.92,5.672,5.672,0,0,1-4.075,1.572h-3.92Zm0-8.717v6.447h3.979a3.214,3.214,0,0,0,2.41-5.406l-.063-.063a3.094,3.094,0,0,0-2.348-.98H192.47Z" transform="translate(-162.084 -8.523)" fill="#5f6368"/>
    <path id="Path_7137" data-name="Path 7137" d="M277.162,46.785a5.883,5.883,0,0,1,4.153,1.406,4.984,4.984,0,0,1,1.521,3.855v7.788h-2.269V58.08h-.1a4.532,4.532,0,0,1-3.92,2.166,5.1,5.1,0,0,1-3.494-1.238,3.952,3.952,0,0,1-1.406-3.095,3.753,3.753,0,0,1,1.482-3.12,6.269,6.269,0,0,1,3.958-1.161,7.006,7.006,0,0,1,3.481.774v-.542a2.7,2.7,0,0,0-.98-2.1,3.36,3.36,0,0,0-2.29-.865,3.632,3.632,0,0,0-3.146,1.677l-2.09-1.316a5.816,5.816,0,0,1,5.1-2.476m-3.07,9.181a1.9,1.9,0,0,0,.787,1.547,2.894,2.894,0,0,0,1.844.619,3.783,3.783,0,0,0,2.669-1.108,3.467,3.467,0,0,0,1.179-2.6,4.846,4.846,0,0,0-3.095-.884,4.012,4.012,0,0,0-2.411.7A2.079,2.079,0,0,0,274.092,55.966Z" transform="translate(-231.612 -39.891)" fill="#5f6368"/>
    <path id="Path_7138" data-name="Path 7138" d="M362.858,49.585l-7.922,18.207h-2.449l2.94-6.371-5.209-11.836H352.8l3.765,9.078h.052l3.662-9.078Z" transform="translate(-298.608 -42.278)" fill="#5f6368"/>
    <path id="Path_7139" data-name="Path 7139" d="M82.186,61.162A12.648,12.648,0,0,0,82,59H72v4.086h5.731a4.911,4.911,0,0,1-2.119,3.224v2.653h3.42a10.376,10.376,0,0,0,3.157-7.806" transform="translate(-61.387 -50.31)" fill="#4285f4"/>
    <path id="Path_7140" data-name="Path 7140" d="M17.147,94.365A10.155,10.155,0,0,0,24.179,91.8l-3.42-2.653a6.435,6.435,0,0,1-9.568-3.366H7.667v2.734a10.61,10.61,0,0,0,9.48,5.846" transform="translate(-6.537 -73.143)" fill="#34a853"/>
    <path id="Path_7141" data-name="Path 7141" d="M4.654,46.47a6.358,6.358,0,0,1,0-4.061V39.675H1.13a10.61,10.61,0,0,0,0,9.529Z" transform="translate(0 -33.828)" fill="#fbbc04"/>
    <path id="Path_7142" data-name="Path 7142" d="M17.147,4.2a5.76,5.76,0,0,1,4.07,1.592l3.028-3.028A10.2,10.2,0,0,0,17.147,0a10.61,10.61,0,0,0-9.48,5.846L11.19,8.58A6.346,6.346,0,0,1,17.147,4.2" transform="translate(-6.537 0)" fill="#ea4335"/>
  </g>
</svg>
