<svg xmlns="http://www.w3.org/2000/svg" xmlns:xlink="http://www.w3.org/1999/xlink" width="58.277" height="23.926" viewBox="0 0 58.277 23.926">
  <defs>
    <clipPath id="clip-path">
      <rect id="Rectangle_3107" data-name="Rectangle 3107" width="58.277" height="23.926" fill="none"/>
    </clipPath>
  </defs>
  <g id="pay_apple" transform="translate(0 0)">
    <g id="Group_5135" data-name="Group 5135" transform="translate(0 0)" clip-path="url(#clip-path)">
      <path id="Path_7135" data-name="Path 7135" d="M10.64,3.083a3.646,3.646,0,0,1-2.864,1.35A4.139,4.139,0,0,1,8.8,1.46,4.281,4.281,0,0,1,11.644,0a4.238,4.238,0,0,1-1,3.083m1,1.569c-1.587-.091-2.937.894-3.649.894S6.17,4.707,4.82,4.725A4.706,4.706,0,0,0,.806,7.134c-1.7,2.937-.438,7.3,1.222,9.688.8,1.168,1.824,2.481,3.047,2.427s1.679-.785,3.138-.785,1.824.785,3.156.766,2.153-1.186,2.974-2.372a10.456,10.456,0,0,0,1.314-2.718,4.269,4.269,0,0,1-2.573-3.9,4.38,4.38,0,0,1,2.08-3.649,4.56,4.56,0,0,0-3.521-1.916m9.122-3.3V19.157h2.846v-6.13h3.813a5.621,5.621,0,0,0,5.926-5.3c.009-.181.011-.361,0-.542A5.583,5.583,0,0,0,28.04,1.35c-.175-.007-.348-.007-.524,0Zm2.846,2.317h3.1a3.3,3.3,0,0,1,3.758,3.5,3.339,3.339,0,0,1-3.1,3.561,3.23,3.23,0,0,1-.677-.022H23.612ZM38.317,19.157a4.56,4.56,0,0,0,4.05-2.262v2.262h2.554V10.272c0-2.573-2.043-4.215-5.2-4.215s-5.036,1.679-5.163,3.977H37.04A2.427,2.427,0,0,1,39.649,8.21c1.679,0,2.627.8,2.627,2.244v.967l-3.448.219c-3.193.182-4.926,1.5-4.926,3.777a3.9,3.9,0,0,0,4.032,3.771c.128,0,.255-.015.383-.031m.73-2.1c-1.46,0-2.39-.712-2.39-1.824s.894-1.824,2.609-1.824l3.065-.2v1a2.993,2.993,0,0,1-3.051,2.934c-.078,0-.155-.007-.234-.015Zm9.341,6.787c2.682,0,3.941-1.022,5.054-4.123l4.835-13.5H55.486L52.238,16.712,48.991,6.221H46.053l4.671,12.936-.255.785a2.206,2.206,0,0,1-2.317,1.824H47.33V23.9a9.753,9.753,0,0,0,1.058.018Z" transform="translate(0 0.001)"/>
    </g>
  </g>
</svg>
