<svg xmlns="http://www.w3.org/2000/svg" xmlns:xlink="http://www.w3.org/1999/xlink" width="225" height="225" viewBox="0 0 225 225">
  <defs>
    <filter id="Ellipse_389" x="0" y="0" width="225" height="225" filterUnits="userSpaceOnUse">
      <feOffset dx="5" dy="5" input="SourceAlpha"/>
      <feGaussianBlur stdDeviation="27.5" result="blur"/>
      <feFlood flood-opacity="0.161"/>
      <feComposite operator="in" in2="blur"/>
      <feComposite in="SourceGraphic"/>
    </filter>
    <clipPath id="clip-path">
      <rect id="Rectangle_643" data-name="Rectangle 643" width="15" height="19" fill="none"/>
    </clipPath>
  </defs>
  <g id="play_small" transform="translate(-486.5 -580.5)">
    <g transform="matrix(1, 0, 0, 1, 486.5, 580.5)" filter="url(#Ellipse_389)">
      <circle id="Ellipse_389-2" data-name="Ellipse 389" cx="30" cy="30" r="30" transform="translate(77.5 77.5)" fill="#fff"/>
    </g>
    <g id="Group_611" data-name="Group 611" transform="translate(587 679)">
      <g id="Group_470" data-name="Group 470" transform="translate(0)" clip-path="url(#clip-path)">
        <path id="Path_973" data-name="Path 973" d="M14.372,10.667l-6.1,4.045L2.132,18.79a1.39,1.39,0,0,1-1.906-.424A1.278,1.278,0,0,1,0,17.615V1.37A1.372,1.372,0,0,1,1.356,0a1.33,1.33,0,0,1,.807.261l6.1,4.045,6.1,4.045a1.388,1.388,0,0,1,.42,1.892,1.306,1.306,0,0,1-.42.424" fill-rule="evenodd"/>
      </g>
    </g>
  </g>
</svg>
