<svg xmlns="http://www.w3.org/2000/svg" width="22.01" height="22" viewBox="0 0 22.01 22">
  <path id="Profile" d="M4230.015,2619a.978.978,0,0,1-.941-.736,6.945,6.945,0,0,0-6.741-5.163h-3.684a6.947,6.947,0,0,0-6.742,5.163.976.976,0,0,1-.939.736.959.959,0,0,1-.765-.377.98.98,0,0,1-.17-.853,9.064,9.064,0,0,1,3.135-4.775,8.755,8.755,0,0,1,5.481-1.919h3.684a8.968,8.968,0,0,1,8.638,6.723.956.956,0,0,1-.174.823.966.966,0,0,1-.769.378Zm-13.742-10.767a5.869,5.869,0,0,1-1.772-4.2,6.018,6.018,0,0,1,5.99-6.031,5.813,5.813,0,0,1,4.174,1.752,6.059,6.059,0,0,1,1.729,4.279,5.926,5.926,0,0,1-10.121,4.2Zm.239-4.2a4,4,0,0,0,3.979,4.005,4.051,4.051,0,1,0-3.979-4.005Z" transform="translate(-4209.495 -2597.5)" stroke="rgba(0,0,0,0)" stroke-miterlimit="10" stroke-width="1"/>
</svg>
