<svg xmlns="http://www.w3.org/2000/svg" width="24.495" height="24.495" viewBox="0 0 24.495 24.495">
  <g id="Sale_small" transform="matrix(0.966, 0.259, -0.259, 0.966, 5.184, -0.042)">
    <path id="Path_72" data-name="Path 72" d="M12.556.044a1.551,1.551,0,0,0-.2.031,3.111,3.111,0,0,0-.388.1c-.265.084-.56.2-.851.315s-.579.229-.8.313A3.093,3.093,0,0,1,10,.891h0A2.724,2.724,0,0,1,9.7.8C9.471.721,9.182.6,8.891.49S8.3.261,8.033.177A3.471,3.471,0,0,0,7.65.08a.819.819,0,0,0-.489,0,.851.851,0,0,0-.418.26,3.623,3.623,0,0,0-.27.3c-.177.217-.369.475-.553.73s-.364.513-.508.7a2.8,2.8,0,0,1-.21.241,2.592,2.592,0,0,1-.307.1c-.234.052-.537.11-.844.174s-.617.129-.887.205a3.1,3.1,0,0,0-.381.126.932.932,0,0,0-.615.718,2.907,2.907,0,0,0-.071.4c-.035.279-.054.6-.073.912s-.033.63-.052.871a2.878,2.878,0,0,1-.05.32,3.106,3.106,0,0,1-.2.243c-.168.174-.395.389-.619.608s-.452.449-.638.659a3.238,3.238,0,0,0-.248.31A.92.92,0,0,0,.08,8.9a2.835,2.835,0,0,0,.151.37c.121.253.277.535.43.811s.307.546.421.761a2.88,2.88,0,0,1,.128.294h0a3.179,3.179,0,0,1-.04.32c-.05.236-.121.539-.191.847s-.142.618-.187.9a3.411,3.411,0,0,0-.045.4.918.918,0,0,0,.395.866,3.448,3.448,0,0,0,.326.229c.239.148.518.3.794.446s.556.294.766.41a2.661,2.661,0,0,1,.265.179,2.8,2.8,0,0,1,.135.286c.085.227.187.525.293.823s.213.6.324.854a3.676,3.676,0,0,0,.177.363.869.869,0,0,0,.331.37.832.832,0,0,0,.463.146,3.639,3.639,0,0,0,.4.014c.279,0,.6-.031.908-.057s.622-.06.861-.076a2.546,2.546,0,0,1,.317.007,2.269,2.269,0,0,1,.272.169c.194.143.44.339.688.532s.5.384.73.542a3.456,3.456,0,0,0,.345.205.909.909,0,0,0,.941,0,3,3,0,0,0,.34-.205c.232-.157.489-.351.738-.544s.492-.387.686-.53a2.4,2.4,0,0,1,.267-.169,2.687,2.687,0,0,1,.322,0c.239.017.544.043.856.069s.631.052.91.057a3.1,3.1,0,0,0,.4-.012.824.824,0,0,0,.47-.148.839.839,0,0,0,.324-.367,3.216,3.216,0,0,0,.177-.363c.111-.26.22-.556.324-.854s.208-.594.293-.821a3.119,3.119,0,0,1,.139-.291,2.3,2.3,0,0,1,.265-.179c.208-.117.485-.26.764-.408s.553-.3.79-.446c.118-.076.227-.148.331-.229a.857.857,0,0,0,.314-.377.846.846,0,0,0,.076-.492,2.981,2.981,0,0,0-.045-.4c-.045-.277-.113-.592-.184-.9s-.139-.608-.189-.847a2.818,2.818,0,0,1-.043-.32,3.131,3.131,0,0,1,.128-.294c.113-.212.27-.484.423-.759s.307-.558.428-.814a3.5,3.5,0,0,0,.154-.37.838.838,0,0,0,.059-.489.851.851,0,0,0-.2-.453,3.3,3.3,0,0,0-.251-.313c-.187-.21-.409-.432-.634-.654s-.452-.437-.619-.611a2.719,2.719,0,0,1-.206-.246,2.318,2.318,0,0,1-.052-.317c-.019-.241-.031-.554-.05-.869s-.038-.637-.073-.916a3.276,3.276,0,0,0-.071-.4.857.857,0,0,0-.208-.444.848.848,0,0,0-.411-.277,3.4,3.4,0,0,0-.381-.126c-.27-.074-.577-.138-.884-.2s-.612-.119-.846-.172a2.717,2.717,0,0,1-.3-.1h0a2.754,2.754,0,0,1-.208-.239c-.144-.191-.329-.449-.513-.7s-.371-.513-.551-.73a3.26,3.26,0,0,0-.272-.3.871.871,0,0,0-.416-.262A.821.821,0,0,0,12.556.044Zm-5.5,5.963A2.014,2.014,0,1,1,5.069,8.021,2.015,2.015,0,0,1,7.059,6.007Zm4.537.126a.631.631,0,0,1,.622.637.665.665,0,0,1-.09.32L8.979,12.6a.624.624,0,0,1-.849.253.635.635,0,0,1-.251-.857l.014-.026L11.047,6.46A.623.623,0,0,1,11.6,6.133ZM7.059,7.272a.749.749,0,1,0,.742.749A.735.735,0,0,0,7.059,7.272Zm5.905,2.367a2.014,2.014,0,1,1-2,2.014A2.014,2.014,0,0,1,12.965,9.639Zm0,1.262a.751.751,0,1,0,.742.752A.739.739,0,0,0,12.965,10.9Z" transform="translate(0)" fill="#ff2300"/>
  </g>
</svg>
