<svg xmlns="http://www.w3.org/2000/svg" width="42.866" height="42.866" viewBox="0 0 42.866 42.866">
  <g id="sale_card" transform="translate(-418.495 -117)">
    <g id="Group_54" data-name="Group 54" transform="matrix(0.966, 0.259, -0.259, 0.966, 416.553, 148)">
      <circle id="Ellipse_431" data-name="Ellipse 431" cx="13.5" cy="13.5" r="13.5" transform="translate(6.069 -29.296)" fill="#fff"/>
      <path id="Path_72" data-name="Path 72" d="M21.966,0a2.715,2.715,0,0,0-.352.054,5.445,5.445,0,0,0-.678.18c-.463.146-.98.351-1.489.551s-1.014.4-1.407.547a5.414,5.414,0,0,1-.542.15h0a4.766,4.766,0,0,1-.53-.15c-.4-.146-.9-.351-1.411-.551s-1.034-.4-1.5-.547a6.074,6.074,0,0,0-.67-.171,1.434,1.434,0,0,0-.856.008,1.488,1.488,0,0,0-.732.455,6.341,6.341,0,0,0-.472.518c-.31.38-.645.831-.968,1.278s-.637.9-.889,1.232a4.908,4.908,0,0,1-.368.422,4.536,4.536,0,0,1-.538.167c-.41.092-.939.192-1.477.3S6,4.675,5.53,4.809a5.424,5.424,0,0,0-.666.221A1.631,1.631,0,0,0,3.788,6.287a5.087,5.087,0,0,0-.124.7c-.062.489-.1,1.044-.128,1.6s-.058,1.1-.091,1.524a5.037,5.037,0,0,1-.087.56A5.435,5.435,0,0,1,3,11.089c-.294.3-.691.681-1.084,1.065s-.79.785-1.117,1.153a5.667,5.667,0,0,0-.434.543A1.609,1.609,0,0,0,.135,15.5,4.962,4.962,0,0,0,.4,16.15c.211.443.484.935.753,1.42s.538.956.736,1.332a5.04,5.04,0,0,1,.223.514h0a5.564,5.564,0,0,1-.07.56c-.087.413-.211.944-.335,1.482s-.248,1.082-.327,1.57a5.969,5.969,0,0,0-.079.7,1.606,1.606,0,0,0,.691,1.516,6.035,6.035,0,0,0,.571.4c.418.259.906.522,1.39.781s.972.514,1.34.718a4.657,4.657,0,0,1,.463.313,4.908,4.908,0,0,1,.236.5c.149.4.327.919.513,1.441s.372,1.044.567,1.495a6.434,6.434,0,0,0,.31.635,1.52,1.52,0,0,0,.579.647,1.456,1.456,0,0,0,.811.255,6.369,6.369,0,0,0,.7.025c.488-.008,1.043-.054,1.589-.1s1.088-.1,1.506-.134a4.456,4.456,0,0,1,.554.013,3.972,3.972,0,0,1,.476.3c.339.251.77.593,1.2.931s.873.672,1.278.948a6.047,6.047,0,0,0,.6.359,1.59,1.59,0,0,0,1.647,0,5.251,5.251,0,0,0,.6-.359c.405-.276.856-.614,1.291-.952s.861-.676,1.2-.927a4.2,4.2,0,0,1,.467-.3,4.7,4.7,0,0,1,.563-.008c.418.029.952.075,1.5.121s1.1.092,1.593.1a5.428,5.428,0,0,0,.7-.021,1.442,1.442,0,0,0,.823-.259,1.467,1.467,0,0,0,.567-.643,5.628,5.628,0,0,0,.31-.635c.194-.455.385-.973.567-1.495s.364-1.04.513-1.436a5.458,5.458,0,0,1,.244-.509,4.031,4.031,0,0,1,.463-.313c.364-.2.848-.455,1.336-.714s.968-.522,1.382-.781c.207-.134.4-.259.579-.4a1.5,1.5,0,0,0,.55-.66,1.48,1.48,0,0,0,.132-.86,5.217,5.217,0,0,0-.079-.7c-.079-.484-.2-1.036-.323-1.574s-.244-1.065-.331-1.482a4.931,4.931,0,0,1-.074-.56,5.479,5.479,0,0,1,.223-.514c.2-.372.472-.848.741-1.328s.538-.977.749-1.424a6.127,6.127,0,0,0,.269-.647,1.466,1.466,0,0,0,.1-.856,1.488,1.488,0,0,0-.343-.793A5.765,5.765,0,0,0,34.2,13.3c-.327-.367-.716-.756-1.109-1.144S32.3,11.39,32,11.085a4.758,4.758,0,0,1-.36-.43,4.058,4.058,0,0,1-.091-.555c-.033-.422-.054-.969-.087-1.52s-.066-1.115-.128-1.6a5.732,5.732,0,0,0-.124-.693,1.5,1.5,0,0,0-.364-.777,1.484,1.484,0,0,0-.72-.484,5.944,5.944,0,0,0-.666-.221c-.472-.129-1.009-.242-1.547-.355s-1.072-.209-1.481-.3a4.754,4.754,0,0,1-.53-.171h0a4.819,4.819,0,0,1-.364-.418c-.252-.334-.575-.785-.9-1.232s-.65-.9-.964-1.278A5.7,5.7,0,0,0,23.2.528a1.523,1.523,0,0,0-.728-.459A1.437,1.437,0,0,0,21.966,0ZM12.348,10.438a3.525,3.525,0,1,1-3.483,3.524A3.527,3.527,0,0,1,12.348,10.438Zm7.939.221a1.1,1.1,0,0,1,1.088,1.115,1.163,1.163,0,0,1-.157.56l-5.511,9.638a1.091,1.091,0,0,1-1.485.443,1.111,1.111,0,0,1-.439-1.5l.025-.046,5.519-9.638A1.09,1.09,0,0,1,20.287,10.659Zm-7.939,1.992a1.311,1.311,0,1,0,1.3,1.311A1.286,1.286,0,0,0,12.348,12.651Zm10.335,4.142a3.525,3.525,0,1,1-3.492,3.524A3.524,3.524,0,0,1,22.682,16.793Zm0,2.209a1.313,1.313,0,1,0,1.3,1.315A1.294,1.294,0,0,0,22.682,19Z" transform="translate(2.602 -32.791)" fill="#ff2300"/>
    </g>
  </g>
</svg>
