<svg xmlns="http://www.w3.org/2000/svg" xmlns:xlink="http://www.w3.org/1999/xlink" width="5" height="9" viewBox="0 0 5 9">
  <defs>
    <clipPath id="clip-path">
      <rect id="Rectangle_31" data-name="Rectangle 31" width="9" height="5" transform="translate(0 0.143)" fill="#848484"/>
    </clipPath>
  </defs>
  <g id="small_arrow_gray" transform="translate(5.143) rotate(90)">
    <g id="Group_176" data-name="Group 176" clip-path="url(#clip-path)">
      <path id="Path_141" data-name="Path 141" d="M4.609,0a.636.636,0,0,0-.424.176L.195,4.035a.648.648,0,0,0-.015.912.637.637,0,0,0,.9.018L4.629,1.533,8.175,4.964a.637.637,0,0,0,.905-.021.648.648,0,0,0-.017-.909L5.072.176A.636.636,0,0,0,4.609,0" transform="translate(0 0)" fill="#848484"/>
    </g>
  </g>
</svg>
