<svg xmlns="http://www.w3.org/2000/svg" width="19" height="12" viewBox="2621 415.329 19 12"><g data-name="CompositeLayer"><path d="M2636 422.33h3a1 1 0 0 1 1 1v3a1 1 0 0 1-1 1h-3a1 1 0 0 1-1-1v-3a1 1 0 0 1 1-1z" fill="#161616" fill-rule="evenodd" data-name="Rectangle 2708"/><path d="M2629 422.33h3a1 1 0 0 1 1 1v3a1 1 0 0 1-1 1h-3a1 1 0 0 1-1-1v-3a1 1 0 0 1 1-1z" fill="#161616" fill-rule="evenodd" data-name="Rectangle 2707"/><path d="M2636 415.33h3a1 1 0 0 1 1 1v3a1 1 0 0 1-1 1h-3a1 1 0 0 1-1-1v-3a1 1 0 0 1 1-1z" fill="#161616" fill-rule="evenodd" data-name="Rectangle 2706"/><path d="M2629 415.33h3a1 1 0 0 1 1 1v3a1 1 0 0 1-1 1h-3a1 1 0 0 1-1-1v-3a1 1 0 0 1 1-1z" fill="#161616" fill-rule="evenodd" data-name="Rectangle 2705"/><path d="M2622 422.33h3a1 1 0 0 1 1 1v3a1 1 0 0 1-1 1h-3a1 1 0 0 1-1-1v-3a1 1 0 0 1 1-1z" fill="#161616" fill-rule="evenodd" data-name="Rectangle 2704"/><path d="M2622 415.33h3a1 1 0 0 1 1 1v3a1 1 0 0 1-1 1h-3a1 1 0 0 1-1-1v-3a1 1 0 0 1 1-1z" fill="#161616" fill-rule="evenodd" data-name="Rectangle 2701"/></g></svg>