<svg xmlns="http://www.w3.org/2000/svg" width="50" height="49.99" viewBox="0 0 50 49.99">
  <g id="whats_big" transform="translate(-950 -2456.5)">
    <path id="Path_7092" data-name="Path 7092" d="M25,0A25,25,0,0,0,4.084,38.693L.864,49.6l11.327-3.138A25,25,0,1,0,25,0" transform="translate(950 2456.5)" fill="#25d366"/>
    <path id="Path_7093" data-name="Path 7093" d="M136.938,141.081a.907.907,0,0,0-.525-.751c-2.016-.926-4.043-1.852-6.06-2.778a.569.569,0,0,0-.669.144l-2.737,3.086a.749.749,0,0,1-.854.206,19.435,19.435,0,0,1-5.268-3.241,19.633,19.633,0,0,1-4.434-5.5,4.793,4.793,0,0,0,1.883-2.459.036.036,0,0,1,.01-.021,4.17,4.17,0,0,0-.093-2.716,28.994,28.994,0,0,0-2.058-4.691c-.072-.072-.154-.144-.154-.144a1.816,1.816,0,0,0-1.132-.453c-.144-.01-.3-.01-.463-.01a8.613,8.613,0,0,0-1.2.031,3.106,3.106,0,0,0-1.914,1.2,8.138,8.138,0,0,0-1.44,2.613c-.031.1-.062.2-.093.3a7.359,7.359,0,0,0,.165,4.465,24.3,24.3,0,0,0,2.2,4.65,25.737,25.737,0,0,0,4.969,5.864,23.746,23.746,0,0,0,6.142,4.383,21.314,21.314,0,0,0,6.677,1.944,7.366,7.366,0,0,0,3.261-.453,6.887,6.887,0,0,0,1.6-.864,5.17,5.17,0,0,0,2.15-3.416v-.031a6.154,6.154,0,0,0,.031-1.358" transform="translate(851.798 2347.281)" fill="#fff"/>
    <rect id="Rectangle_2869" data-name="Rectangle 2869" width="50" height="49.99" transform="translate(950 2456.5)" fill="none"/>
  </g>
</svg>
