<svg xmlns="http://www.w3.org/2000/svg" width="20.634" height="20.629" viewBox="0 0 20.634 20.629">
  <g id="whats_small" transform="translate(-84 -167.5)">
    <path id="Path_965" data-name="Path 965" d="M10.317,0A10.317,10.317,0,0,0,1.686,15.968l-1.329,4.5,4.674-1.295A10.316,10.316,0,1,0,10.317,0" transform="translate(84 167.5)" fill="#25d366"/>
    <path id="Path_966" data-name="Path 966" d="M120.8,129.724a.374.374,0,0,0-.217-.31l-2.5-1.146a.235.235,0,0,0-.276.059L116.68,129.6a.309.309,0,0,1-.352.085,8.021,8.021,0,0,1-2.174-1.337,8.1,8.1,0,0,1-1.83-2.271,1.978,1.978,0,0,0,.777-1.015.015.015,0,0,1,0-.008,1.721,1.721,0,0,0-.038-1.121,11.965,11.965,0,0,0-.849-1.936c-.03-.03-.064-.059-.064-.059a.749.749,0,0,0-.467-.187c-.059,0-.123,0-.191,0a3.554,3.554,0,0,0-.5.013,1.282,1.282,0,0,0-.79.5,3.358,3.358,0,0,0-.594,1.078c-.013.042-.025.081-.038.123a3.037,3.037,0,0,0,.068,1.843,10.028,10.028,0,0,0,.909,1.919,10.62,10.62,0,0,0,2.051,2.42,9.8,9.8,0,0,0,2.535,1.809,8.8,8.8,0,0,0,2.755.8,3.04,3.04,0,0,0,1.346-.187,2.842,2.842,0,0,0,.662-.357,2.133,2.133,0,0,0,.887-1.41v-.013a2.54,2.54,0,0,0,.013-.56" transform="translate(-20.818 50.924)" fill="#fff"/>
    <rect id="Rectangle_3426" data-name="Rectangle 3426" width="20.634" height="20.629" transform="translate(84 167.5)" fill="none"/>
    <rect id="Rectangle_622" data-name="Rectangle 622" width="20.634" height="20.629" transform="translate(84 167.5)" fill="none"/>
  </g>
</svg>
